<svg width="64" height="64" viewBox="0 0 64 64" fill="none" xmlns="http://www.w3.org/2000/svg">
<mask id="mask0" mask-type="alpha" maskUnits="userSpaceOnUse" x="9" y="8" width="46" height="48">
<path d="M9.59961 19.541C9.59961 13.1671 14.9299 8 21.505 8H54.3996C54.3996 14.3739 49.0694 19.541 42.4942 19.541H22.7874C18.0613 19.541 13.4706 21.0718 9.74468 23.8903L9.59961 24V19.541Z" fill="#7D7C7C"/>
<path d="M9.59961 37.7143C9.59961 30.1401 16.0467 24 23.9996 24V42.2857C23.9996 49.8599 17.5525 56 9.59961 56V37.7143Z" fill="#2D2A2A"/>
<path d="M9.59961 35.541C9.59961 29.1671 14.9299 24 21.505 24H42.6101C42.6101 30.3739 37.2799 35.541 30.7047 35.541H20.5774C17.2834 35.541 14.0839 36.6079 11.487 38.5723L9.59961 40V35.541Z" fill="#7D7C7C"/>
</mask>
<g mask="url(#mask0)">
<rect x="9.59961" y="56" width="48" height="44.8" transform="rotate(-90 9.59961 56)" fill="#0076FF"/>
<rect x="9.59961" y="56" width="48" height="44.8" transform="rotate(-90 9.59961 56)" fill="url(#paint0_radial)"/>
<rect x="9.59961" y="56" width="48" height="44.8" transform="rotate(-90 9.59961 56)" fill="url(#paint1_linear)" fill-opacity="0.4"/>
<g style="mix-blend-mode:soft-light">
<path d="M9.59961 19.541C9.59961 13.1671 14.9299 8 21.505 8H54.3996C54.3996 14.3739 49.0694 19.541 42.4942 19.541H22.7874C18.0613 19.541 13.4706 21.0718 9.74468 23.8903L9.59961 24V19.541Z" fill="#F8F8F8"/>
<path d="M9.59961 37.7143C9.59961 30.1401 16.0467 24 23.9996 24V42.2857C23.9996 49.8599 17.5525 56 9.59961 56V37.7143Z" fill="#7D7C7C"/>
<path d="M9.59961 35.541C9.59961 29.1671 14.9299 24 21.505 24H42.6101C42.6101 30.3739 37.2799 35.541 30.7047 35.541H20.5774C17.2834 35.541 14.0839 36.6079 11.487 38.5723L9.59961 40V35.541Z" fill="#F8F8F8"/>
</g>
</g>
<defs>
<radialGradient id="paint0_radial" cx="0" cy="0" r="1" gradientUnits="userSpaceOnUse" gradientTransform="translate(57.5996 98.2642) rotate(-163.336) scale(68.7795 46.9273)">
<stop offset="0.177083" stop-color="#FA5A45"/>
<stop offset="1" stop-color="#F45151" stop-opacity="0"/>
</radialGradient>
<linearGradient id="paint1_linear" x1="13.5269" y1="95.4465" x2="37.7615" y2="50.8539" gradientUnits="userSpaceOnUse">
<stop stop-color="#0076FF"/>
<stop offset="1" stop-color="#0076FF" stop-opacity="0"/>
</linearGradient>
</defs>
</svg>
