<svg id="Capa_1" enable-background="new 0 0 512 512" height="512" viewBox="0 0 512 512" width="512" xmlns="http://www.w3.org/2000/svg"><g><path d="m500.862 225.775c-29.621-34.367-64.949-66.624-102.388-91.029l83.309-83.309c5.86-5.859 5.86-15.361 0-21.22-5.859-5.859-15.361-5.859-21.22 0l-88.729 88.729c-39.21-20.972-78.035-31.584-115.834-31.584-94.311 0-183.452 67.163-244.862 138.413-14.85 17.231-14.85 43.218 0 60.449 29.621 34.367 64.949 66.624 102.388 91.029l-83.309 83.309c-5.86 5.859-5.86 15.361 0 21.22 5.861 5.861 15.361 5.86 21.22 0l88.729-88.729c39.21 20.972 78.034 31.584 115.833 31.584 94.311 0 183.452-67.163 244.862-138.413 14.852-17.23 14.852-43.218.001-60.449zm-466.992 40.856c-5.309-6.16-5.309-15.103 0-21.263 33.169-38.484 121.213-127.995 222.13-127.995 33.052 0 64.723 9.603 93.538 23.869l-41.153 41.153c-14.787-10.554-32.873-16.771-52.385-16.771-49.833 0-90.376 40.543-90.376 90.376 0 19.511 6.216 37.597 16.77 52.385l-47.12 47.12c-46.296-28.99-82.636-67.098-101.404-88.874zm282.495-10.631c0 33.285-27.08 60.365-60.365 60.365-11.211 0-21.711-3.082-30.716-8.428l41.326-41.326 41.326-41.326c5.347 9.004 8.429 19.504 8.429 30.715zm-120.73 0c0-33.285 27.08-60.365 60.365-60.365 11.211 0 21.711 3.082 30.716 8.429l-41.326 41.326-41.326 41.326c-5.347-9.005-8.429-19.505-8.429-30.716zm282.495 10.631c-33.169 38.485-121.213 127.996-222.13 127.996-33.052 0-64.723-9.603-93.538-23.869l41.153-41.153c14.787 10.554 32.873 16.771 52.385 16.771 49.833 0 90.376-40.543 90.376-90.376 0-19.511-6.216-37.597-16.771-52.385l47.12-47.12c46.296 28.99 82.636 67.098 101.404 88.873 5.31 6.16 5.31 15.103.001 21.263z"/></g></svg>