<svg width="48" height="48" viewBox="0 0 48 48" fill="none" xmlns="http://www.w3.org/2000/svg">
<path fill-rule="evenodd" clip-rule="evenodd" d="M4.89907 4.32289C5.16258 3.71478 5.86916 3.43544 6.47726 3.69895L24.0001 11.2922L41.523 3.69895C42.1311 3.43544 42.8377 3.71478 43.1012 4.32289C43.3647 4.93099 43.0854 5.63757 42.4773 5.90108L24.0001 13.9078L5.52301 5.90108C4.9149 5.63757 4.63556 4.93099 4.89907 4.32289ZM6.47726 8.49895C5.86916 8.23544 5.16258 8.51478 4.89907 9.12289C4.63556 9.73099 4.9149 10.4376 5.52301 10.7011L24.0001 18.7078L42.4773 10.7011C43.0854 10.4376 43.3647 9.73099 43.1012 9.12289C42.8377 8.51478 42.1311 8.23544 41.523 8.49895L24.0001 16.0922L6.47726 8.49895ZM6.47726 13.2989C5.86916 13.0354 5.16258 13.3148 4.89907 13.9229C4.63556 14.531 4.9149 15.2376 5.52301 15.5011L24.0001 23.5078L42.4773 15.5011C43.0854 15.2376 43.3647 14.531 43.1012 13.9229C42.8377 13.3148 42.1311 13.0354 41.523 13.2989L24.0001 20.8922L6.47726 13.2989ZM41.523 35.3011C42.1311 35.5646 42.8377 35.2852 43.1012 34.6771C43.3647 34.069 43.0853 33.3624 42.4772 33.0989L24.0001 25.0922L5.52298 33.0989C4.91488 33.3624 4.63553 34.069 4.89904 34.6771C5.16255 35.2852 5.86914 35.5646 6.47724 35.301L24.0001 27.7078L41.523 35.3011ZM43.1012 39.4771C42.8377 40.0852 42.1311 40.3646 41.523 40.1011L24.0001 32.5078L6.47724 40.1011C5.86914 40.3646 5.16255 40.0852 4.89904 39.4771C4.63553 38.869 4.91488 38.1624 5.52298 37.8989L24.0001 29.8922L42.4772 37.8989C43.0853 38.1624 43.3647 38.869 43.1012 39.4771ZM41.523 44.9011C42.1311 45.1646 42.8377 44.8852 43.1012 44.2771C43.3647 43.669 43.0853 42.9624 42.4772 42.6989L24.0001 34.6922L5.52298 42.6989C4.91488 42.9624 4.63553 43.669 4.89904 44.2771C5.16255 44.8852 5.86914 45.1646 6.47724 44.901L24.0001 37.3078L41.523 44.9011Z" fill="#FCFCFC"/>
</svg>
