<svg width="48" height="48" viewBox="0 0 48 48" fill="none" xmlns="http://www.w3.org/2000/svg">
<path fill-rule="evenodd" clip-rule="evenodd" d="M24.1513 3.60029L24.1248 3.59971L24.0984 3.60029C20.4443 3.68098 18.4124 4.99141 16.883 6.3446C16.5833 6.60978 16.2996 6.87932 16.041 7.12503L15.8825 7.27549C15.5739 7.5677 15.3009 7.81988 15.0279 8.03953C14.4953 8.46808 14.0112 8.73244 13.4271 8.83234C11.8409 9.10359 9.95776 9.23753 8.39671 9.29459C6.44649 9.36587 4.7998 10.9447 4.7998 12.9674V22.6857C4.7998 23.374 4.98554 24.2699 5.27261 25.2171C5.56733 26.1894 5.99599 27.3031 6.54085 28.455C7.62421 30.7455 9.20962 33.2771 11.2063 35.1651C13.0742 36.9314 15.5687 39.1667 17.8735 40.977C19.0238 41.8805 20.1494 42.6961 21.1397 43.2964C21.6345 43.5965 22.1162 43.8554 22.565 44.0453C22.9967 44.2279 23.4809 44.3827 23.9583 44.3993L23.9998 44.4007L24.0414 44.3993C24.5187 44.3827 25.0029 44.2279 25.4346 44.0453C25.8834 43.8554 26.3651 43.5965 26.86 43.2964C27.8502 42.6961 28.9758 41.8805 30.1261 40.977C32.4309 39.1667 34.9254 36.9314 36.7933 35.1651C38.79 33.2771 40.3754 30.7455 41.4588 28.455C42.0036 27.3031 42.4323 26.1894 42.727 25.2171C43.0141 24.2699 43.1998 23.374 43.1998 22.6857V12.9674C43.1998 10.9447 41.5531 9.36587 39.6029 9.29459C38.0418 9.23753 36.1587 9.10359 34.5725 8.83234C33.9944 8.73347 33.5308 8.4739 33.0281 8.05374C32.7688 7.83699 32.5106 7.58737 32.217 7.29568C32.1658 7.24472 32.1132 7.19223 32.0594 7.13855C31.8153 6.89504 31.5465 6.62679 31.2623 6.36332C29.7876 4.99615 27.8107 3.6811 24.1513 3.60029ZM13.8316 11.198C14.9551 11.0059 15.8101 10.4906 16.5325 9.90935C16.887 9.62411 17.2204 9.31387 17.5325 9.01831L17.7041 8.85556C17.9616 8.61094 18.2085 8.37633 18.4733 8.14205C19.6812 7.07337 21.1841 6.07104 24.1248 6.00032C27.0599 6.07091 28.4929 7.06859 29.6306 8.12334C29.8794 8.35396 30.1104 8.5844 30.3527 8.82609C30.4095 8.88277 30.467 8.94006 30.5254 8.99812C30.8234 9.2942 31.1442 9.60701 31.4889 9.89514C32.1942 10.4848 33.0385 11.0048 34.168 11.198C35.9056 11.4951 37.909 11.6343 39.5152 11.693C40.2467 11.7197 40.7998 12.3067 40.7998 12.9674V22.6857C40.7998 23.0195 40.6949 23.6475 40.4302 24.5209C40.1731 25.369 39.7889 26.3725 39.2892 27.4289C38.2835 29.5551 36.8534 31.8052 35.1443 33.4213C33.3065 35.1592 30.8701 37.3408 28.6436 39.0896C27.5283 39.9656 26.4882 40.7152 25.6157 41.2442C25.1792 41.5088 24.8053 41.7056 24.4996 41.8349C24.2384 41.9454 24.0778 41.9845 23.9998 41.9963C23.9219 41.9845 23.7612 41.9454 23.5 41.8349C23.1943 41.7056 22.8204 41.5088 22.3839 41.2442C21.5114 40.7152 20.4714 39.9656 19.356 39.0896C17.1295 37.3408 14.6932 35.1592 12.8553 33.4213C11.1462 31.8052 9.71609 29.5551 8.7104 27.4289C8.21074 26.3725 7.82649 25.369 7.56943 24.5209C7.30472 23.6475 7.1998 23.0195 7.1998 22.6857V12.9674C7.1998 12.3067 7.75289 11.7197 8.48438 11.693C10.0906 11.6343 12.094 11.4951 13.8316 11.198ZM23.9998 8.40004V38.602C23.9998 39.5514 22.9674 40.1003 22.2111 39.5265C19.1192 37.1806 14.6803 33.2806 13.1998 31.8C10.7998 29.4 8.9998 25.2 8.3998 23.4C7.93987 22.0203 8.18505 16.4098 8.3246 13.8654C8.36238 13.1765 8.97829 12.6667 9.66824 12.674C11.3743 12.6922 13.7299 12.4675 15.5998 12C17.6193 11.4952 18.8066 10.365 19.896 9.32815C20.7968 8.47074 21.6306 7.67709 22.8126 7.35346C23.4518 7.17844 23.9998 7.7373 23.9998 8.40004Z" fill="#FCFCFC"/>
</svg>
