<svg width="48" height="48" viewBox="0 0 48 48" fill="none" xmlns="http://www.w3.org/2000/svg">
<path fill-rule="evenodd" clip-rule="evenodd" d="M34.7998 9.6H13.1998L13.1998 38.4H19.1998V33.6C19.1998 30.949 21.3488 28.8 23.9998 28.8C26.6508 28.8 28.7998 30.949 28.7998 33.6V38.4H34.7998V9.6ZM28.7998 40.8H34.7998C36.1253 40.8 37.1998 39.7255 37.1998 38.4V9.6C37.1998 8.27452 36.1253 7.2 34.7998 7.2H13.1998C11.8743 7.2 10.7998 8.27452 10.7998 9.6V38.4C10.7998 39.7255 11.8743 40.8 13.1998 40.8H19.1998V44.9454C19.1998 45.2102 19.4337 45.4488 19.7924 45.5502C20.1512 45.6515 20.5641 45.5955 20.8386 45.4083L23.9998 43.2529L27.161 45.4083C27.4355 45.5955 27.8485 45.6515 28.2072 45.5502C28.5659 45.4488 28.7998 45.2102 28.7998 44.9454V40.8ZM15.5998 14.6C15.5998 14.0477 16.0475 13.6 16.5998 13.6H31.3998C31.9521 13.6 32.3998 14.0477 32.3998 14.6C32.3998 15.1523 31.9521 15.6 31.3998 15.6H16.5998C16.0475 15.6 15.5998 15.1523 15.5998 14.6ZM16.5998 18.4C16.0475 18.4 15.5998 18.8477 15.5998 19.4C15.5998 19.9523 16.0475 20.4 16.5998 20.4H31.3998C31.9521 20.4 32.3998 19.9523 32.3998 19.4C32.3998 18.8477 31.9521 18.4 31.3998 18.4H16.5998ZM15.5998 24.2C15.5998 23.6477 16.0475 23.2 16.5998 23.2H31.3998C31.9521 23.2 32.3998 23.6477 32.3998 24.2C32.3998 24.7523 31.9521 25.2 31.3998 25.2H16.5998C16.0475 25.2 15.5998 24.7523 15.5998 24.2ZM23.9998 36.4C25.5462 36.4 26.7998 35.1464 26.7998 33.6C26.7998 32.0536 25.5462 30.8 23.9998 30.8C22.4534 30.8 21.1998 32.0536 21.1998 33.6C21.1998 35.1464 22.4534 36.4 23.9998 36.4ZM23.9998 38.4C25.0804 38.4 26.0776 38.0429 26.8798 37.4404V43.3652L24.6786 41.8644C24.3037 41.6088 23.6959 41.6088 23.321 41.8644L21.1198 43.3652V37.4404C21.922 38.0429 22.9192 38.4 23.9998 38.4Z" fill="#FCFCFC"/>
</svg>
