<svg width="16" height="16" viewBox="0 0 16 16" fill="none" xmlns="http://www.w3.org/2000/svg">
<path d="M8.66634 4.66666H7.33301V7.33333H4.66634V8.66666H7.33301V11.3333H8.66634V8.66666H11.333V7.33333H8.66634V4.66666ZM7.99967 1.33333C4.31967 1.33333 1.33301 4.32 1.33301 8C1.33301 11.68 4.31967 14.6667 7.99967 14.6667C11.6797 14.6667 14.6663 11.68 14.6663 8C14.6663 4.32 11.6797 1.33333 7.99967 1.33333ZM7.99967 13.3333C5.05967 13.3333 2.66634 10.94 2.66634 8C2.66634 5.06 5.05967 2.66666 7.99967 2.66666C10.9397 2.66666 13.333 5.06 13.333 8C13.333 10.94 10.9397 13.3333 7.99967 13.3333Z" fill="#F8F8F8"/>
</svg>
