<svg width="40" height="40" viewBox="0 0 40 40" fill="none" xmlns="http://www.w3.org/2000/svg">
<path fill-rule="evenodd" clip-rule="evenodd" d="M20.1263 3.00024L20.1042 2.99976L20.0821 3.00024C17.0371 3.06748 15.3438 4.15951 14.0693 5.28717C13.8196 5.50815 13.5832 5.73276 13.3677 5.93752L13.2356 6.06291C12.9784 6.30642 12.7509 6.51657 12.5234 6.69961C12.0796 7.05673 11.6762 7.27703 11.1894 7.36028C9.86759 7.58632 8.2983 7.69794 6.99742 7.74549C5.37224 7.80489 4 9.12058 4 10.8062V18.9048C4 19.4783 4.15478 20.2249 4.394 21.0142C4.6396 21.8245 4.99682 22.7526 5.45087 23.7125C6.35367 25.6212 7.67485 27.7309 9.33876 29.3043C10.8953 30.7762 12.9741 32.6389 14.8948 34.1475C15.8533 34.9004 16.7914 35.58 17.6165 36.0803C18.029 36.3304 18.4303 36.5462 18.8044 36.7044C19.1641 36.8565 19.5676 36.9856 19.9654 36.9994L20 37.0006L20.0346 36.9994C20.4324 36.9856 20.8359 36.8565 21.1956 36.7044C21.5697 36.5462 21.971 36.3304 22.3835 36.0803C23.2086 35.58 24.1467 34.9004 25.1052 34.1475C27.0259 32.6389 29.1047 30.7762 30.6612 29.3043C32.3252 27.7309 33.6463 25.6212 34.5491 23.7125C35.0032 22.7526 35.3604 21.8245 35.606 21.0142C35.8452 20.2249 36 19.4783 36 18.9048V10.8062C36 9.12057 34.6278 7.80489 33.0026 7.74549C31.7017 7.69794 30.1324 7.58632 28.8106 7.36028C28.3288 7.27789 27.9425 7.06159 27.5236 6.71145C27.3075 6.53082 27.0923 6.32281 26.8477 6.07973L26.7163 5.94879C26.5129 5.74587 26.2889 5.52233 26.0521 5.30276C24.8232 4.16346 23.1757 3.06758 20.1263 3.00024ZM11.5265 9.33166C12.4627 9.17156 13.1753 8.74216 13.7772 8.25779C14.0726 8.02009 14.3505 7.76155 14.6106 7.51526L14.7535 7.37963C14.9681 7.17578 15.174 6.98028 15.3946 6.78504C16.4012 5.89448 17.6536 5.0592 20.1042 5.00027C22.5501 5.05909 23.7443 5.89049 24.6924 6.76945C24.8997 6.96163 25.0922 7.15367 25.2941 7.35507L25.438 7.49843C25.6863 7.74517 25.9536 8.00584 26.2409 8.24595C26.8287 8.7373 27.5323 9.1707 28.4735 9.33166C29.9215 9.57929 31.591 9.69523 32.9295 9.74415C33.5391 9.76643 34 10.2556 34 10.8062V18.9048C34 19.1829 33.9126 19.7063 33.692 20.4341C33.4778 21.1409 33.1576 21.9771 32.7412 22.8574C31.9031 24.6292 30.7114 26.5043 29.2871 27.8511C27.7555 29.2993 25.7252 31.1173 23.8698 32.5747C22.9404 33.3047 22.0736 33.9293 21.3466 34.3701C20.9828 34.5906 20.6712 34.7546 20.4165 34.8624C20.1988 34.9545 20.065 34.9871 20 34.997C19.935 34.9871 19.8012 34.9545 19.5835 34.8624C19.3288 34.7546 19.0172 34.5906 18.6534 34.3701C17.9264 33.9293 17.0596 33.3047 16.1302 32.5747C14.2748 31.1173 12.2445 29.2993 10.7129 27.8511C9.28863 26.5043 8.0969 24.6292 7.25883 22.8574C6.84244 21.9771 6.52224 21.1409 6.30802 20.4341C6.08743 19.7063 6 19.1829 6 18.9048V10.8062C6 10.2556 6.46091 9.76643 7.07048 9.74415C8.40897 9.69523 10.0785 9.57929 11.5265 9.33166ZM20 7.00003V32.1684C20 32.9595 19.1397 33.4169 18.5094 32.9387C15.9328 30.9838 12.2338 27.7338 11 26.5C8.99999 24.5 7.49999 21 6.99999 19.5C6.61672 18.3502 6.82104 13.6748 6.93733 11.5545C6.96882 10.9804 7.48207 10.5556 8.05703 10.5617C9.47875 10.5768 11.4417 10.3896 13 10C14.6829 9.57931 15.6723 8.63753 16.5801 7.77346C17.3308 7.05895 18.0257 6.39757 19.0106 6.12788C19.5433 5.98203 20 6.44775 20 7.00003Z" fill="#2D2A2A"/>
</svg>
