<svg width="233" height="229" viewBox="0 0 233 229" fill="none" xmlns="http://www.w3.org/2000/svg">
<rect x="13.6133" y="13.6135" width="207.867" height="207.867" rx="24" fill="#F8F8F8"/>
<path d="M190.631 97.1272C185.604 93.7762 165.935 89.7968 156.597 89.535C144.293 90.3204 118.846 91.8912 115.495 91.8912C111.306 91.8912 100.311 96.08 92.4567 104.196C84.6028 112.311 86.1736 129.852 85.3882 137.706C84.7599 143.989 91.3223 177.761 90.3624 196.872L209.742 213.627C208.171 197.047 212.884 163.571 212.884 154.984C212.884 144.251 209.742 132.732 206.601 121.736C203.459 110.741 196.914 101.316 190.631 97.1272Z" fill="#0076FF" stroke="black" stroke-width="2"/>
<path d="M157.645 98.1743C158.273 93.7761 155.288 85.6953 153.718 82.2046C142.635 84.1245 120.679 89.2208 121.516 94.2473C122.564 100.53 133.036 115.453 143.507 115.715C153.979 115.977 156.859 103.672 157.645 98.1743Z" fill="#FCFCFC" stroke="#2D2A2A" stroke-width="2"/>
<path d="M110.52 77.2304C109.473 69.6907 110.957 55.763 111.829 49.7417C116.716 47.1237 127.642 41.783 132.25 41.3642C138.009 40.8406 158.691 62.8316 162.88 62.308C167.069 61.7844 167.592 62.8316 167.854 67.0203C168.116 71.2091 167.33 74.3507 164.712 77.2304C162.618 79.5343 158.953 80.4593 157.382 80.6338C154.415 87.0042 144.816 99.8498 130.155 100.269C115.494 100.688 110.957 85.0844 110.52 77.2304Z" fill="#FCFCFC" stroke="#2D2A2A" stroke-width="2"/>
<path d="M148.22 56.5485C145.707 52.1503 138.272 50.2654 135.654 47.9092C124.658 42.935 112.616 50.2654 110.783 52.8833C109.317 54.9777 100.835 60.2137 105.809 52.8833L109.212 43.9822L105.809 47.1238L107.903 41.3642L105.809 42.6732C107.554 39.0081 112.302 30.9971 117.328 28.2744C122.355 25.5517 126.753 25.3946 128.324 25.6564C126.753 24.6965 123.088 20.944 128.324 20.944C133.56 20.944 138.795 24.6965 139.843 25.6564L135.654 19.3732C137.225 19.7223 143.717 24.1903 146.649 25.6564C150.315 27.489 157.645 30.1069 159.739 31.6777C161.834 33.2485 170.211 42.4114 172.567 47.1238C174.452 50.8937 172.655 59.5156 171.52 63.3553L170.211 70.4238L166.284 73.8272C166.808 70.3365 168.379 65.1878 166.284 62.3081C165.545 61.2918 160.612 64.1406 158.954 64.1406L154.765 73.8272C153.107 71.2092 150.733 60.9467 148.22 56.5485Z" fill="#2D2A2A" stroke="#2D2A2A"/>
<ellipse cx="133.297" cy="68.0676" rx="1.30899" ry="2.35618" fill="#2D2A2A"/>
<path d="M117.852 84.561C118.811 85.2591 119.946 86.6554 123.349 86.6554C127.8 86.6554 131.901 84.2119 134.868 82.9902" stroke="#2D2A2A" stroke-width="2" stroke-linecap="round"/>
<path d="M122.564 74.0889C121.774 74.693 120.667 76.4813 122.564 78.8013" stroke="#2D2A2A" stroke-width="2" stroke-linecap="round"/>
<path d="M159.738 70.9473C160.698 68.5911 162.827 64.35 163.665 66.2349C164.712 68.5911 164.712 75.3979 162.618 75.6597" stroke="#2D2A2A" stroke-width="2" stroke-linecap="round"/>
<ellipse cx="114.971" cy="68.0676" rx="1.30899" ry="2.35618" fill="#2D2A2A"/>
<path d="M101.62 130.637C102.755 138.142 105.704 153.937 108.427 157.079M107.38 137.706L112.616 199.49M190.108 137.706V171.216L185.657 209.7" stroke="#2D2A2A" stroke-width="2"/>
<path d="M213.627 214.151L53.6689 190.851" stroke="#2D2A2A" stroke-width="2"/>
<rect x="42.4561" y="47.0764" width="49.836" height="30.9865" rx="1" stroke="#2D2A2A" stroke-width="2"/>
<path d="M42.5029 75.136L57.1636 62.8315L67.3737 71.7326L81.249 56.8101L91.7209 69.1146" stroke="#2D2A2A" stroke-width="2" stroke-linejoin="round"/>
<circle cx="217.186" cy="15.8145" r="15.8145" fill="#0076FF"/>
<path fill-rule="evenodd" clip-rule="evenodd" d="M217.252 6.85307L217.24 6.85281L217.229 6.85307C215.623 6.88852 214.731 7.46418 214.059 8.05862C213.927 8.17511 213.803 8.29352 213.689 8.40145L213.62 8.46755C213.484 8.59592 213.364 8.7067 213.244 8.80319C213.01 8.99144 212.797 9.10758 212.541 9.15146C211.844 9.27062 211.017 9.32946 210.331 9.35452C209.474 9.38584 208.751 10.0794 208.751 10.968V15.2371C208.751 15.5395 208.833 15.9331 208.959 16.3491C209.088 16.7763 209.276 17.2655 209.516 17.7715C209.992 18.7777 210.688 19.8898 211.565 20.7192C212.386 21.4951 213.482 22.4771 214.494 23.2723C214.999 23.6692 215.494 24.0275 215.929 24.2912C216.146 24.423 216.358 24.5368 216.555 24.6202C216.745 24.7004 216.957 24.7684 217.167 24.7757L217.185 24.7763L217.204 24.7757C217.413 24.7684 217.626 24.7004 217.816 24.6202C218.013 24.5368 218.224 24.423 218.442 24.2912C218.877 24.0275 219.371 23.6692 219.877 23.2723C220.889 22.4771 221.985 21.4951 222.805 20.7192C223.683 19.8898 224.379 18.7777 224.855 17.7715C225.094 17.2655 225.283 16.7763 225.412 16.3491C225.538 15.9331 225.62 15.5395 225.62 15.2371V10.968C225.62 10.0794 224.896 9.38584 224.04 9.35452C223.354 9.32946 222.527 9.27062 221.83 9.15146C221.576 9.10803 221.372 8.994 221.151 8.80943C221.038 8.71421 220.924 8.60456 220.795 8.47642L220.726 8.40739L220.726 8.40739C220.619 8.30042 220.501 8.18258 220.376 8.06684C219.728 7.46626 218.859 6.88857 217.252 6.85307ZM212.719 10.1907C213.212 10.1063 213.588 9.87992 213.905 9.62458C214.061 9.49928 214.207 9.36299 214.344 9.23316L214.42 9.16166C214.533 9.0542 214.641 8.95114 214.758 8.84822C215.288 8.37876 215.948 7.93845 217.24 7.90738C218.53 7.93839 219.159 8.37666 219.659 8.84C219.768 8.94131 219.87 9.04255 219.976 9.14872L220.052 9.22429C220.183 9.35435 220.324 9.49177 220.475 9.61834C220.785 9.87736 221.156 10.1058 221.652 10.1907C222.415 10.3212 223.296 10.3823 224.001 10.4081C224.322 10.4199 224.565 10.6777 224.565 10.968V15.2371C224.565 15.3838 224.519 15.6596 224.403 16.0433C224.29 16.4159 224.121 16.8567 223.902 17.3207C223.46 18.2548 222.832 19.2432 222.081 19.9532C221.274 20.7166 220.203 21.675 219.225 22.4432C218.735 22.828 218.278 23.1573 217.895 23.3897C217.703 23.5059 217.539 23.5924 217.405 23.6492C217.29 23.6977 217.22 23.7149 217.185 23.7201C217.151 23.7149 217.081 23.6977 216.966 23.6492C216.832 23.5924 216.667 23.5059 216.476 23.3897C216.092 23.1573 215.635 22.828 215.145 22.4432C214.167 21.675 213.097 20.7166 212.29 19.9532C211.539 19.2432 210.911 18.2548 210.469 17.3207C210.249 16.8567 210.081 16.4159 209.968 16.0433C209.851 15.6596 209.805 15.3838 209.805 15.2371V10.968C209.805 10.6777 210.048 10.4199 210.37 10.4081C211.075 10.3823 211.955 10.3212 212.719 10.1907ZM217.185 8.96156V22.229C217.185 22.6461 216.732 22.8872 216.4 22.6351C215.041 21.6046 213.091 19.8914 212.441 19.241C211.387 18.1867 210.596 16.3416 210.332 15.5509C210.13 14.9448 210.238 12.4802 210.299 11.3625C210.316 11.0598 210.587 10.8359 210.89 10.8391C211.639 10.8471 212.674 10.7484 213.495 10.543C214.382 10.3212 214.904 9.82476 215.383 9.36927C215.778 8.99262 216.145 8.64397 216.664 8.5018C216.945 8.42492 217.185 8.67042 217.185 8.96156Z" fill="#FCFCFC"/>
<path d="M149.225 215.721L94.7708 226.979V224.622L90.582 200.013L149.225 212.58V215.721Z" fill="#F8F8F8"/>
<path d="M149.225 212.58V215.721L94.7708 226.979V224.622M149.225 212.58L94.7708 224.622M149.225 212.58L90.582 200.013L94.7708 224.622" stroke="#2D2A2A" stroke-width="2"/>
<path d="M87.5054 106.944L2.01003 112.444C0.902228 112.515 0.064414 113.475 0.143505 114.582L6.18538 199.169C6.24429 199.993 6.80463 200.697 7.59529 200.939L92.5764 226.933C93.9002 227.338 95.225 226.308 95.1592 224.925L89.6316 108.845C89.5784 107.729 88.6207 106.872 87.5054 106.944Z" fill="#2D2A2A"/>
<path d="M48.5804 154.15C49.4537 159.843 46.4355 164.833 42.087 165.5C37.7386 166.167 33.3633 162.311 32.49 156.619C31.6168 150.927 34.6349 145.936 38.9834 145.269C43.3319 144.602 47.7072 148.458 48.5804 154.15Z" fill="#F8F8F8" stroke="#F8F8F8"/>
</svg>
