<svg width="227" height="224" viewBox="0 0 227 224" fill="none" xmlns="http://www.w3.org/2000/svg">
<rect y="15.8145" width="207.867" height="207.867" rx="24" fill="#F8F8F8"/>
<path d="M12.829 182.682L37.8936 157.162C38.2697 156.779 38.7838 156.563 39.3205 156.563H172.512C173.096 156.563 173.65 156.818 174.03 157.262L195.905 182.782C197.017 184.079 196.095 186.084 194.386 186.084H14.2559C12.4827 186.084 11.5865 183.947 12.829 182.682Z" fill="#F8F8F8" stroke="#2D2A2A" stroke-width="4"/>
<rect x="34.6836" y="57.8779" width="140.439" height="97.2127" rx="6" fill="#F8F8F8" stroke="#2D2A2A" stroke-width="4"/>
<path d="M107.034 97.7608C105.484 91.8159 105.613 85.6363 105.871 83.2897H103.934C104.192 85.6363 104.321 91.8159 102.772 97.7608L102.697 98.0484C100.814 105.273 100.014 108.341 96.5719 109.885C93.0846 111.45 87.6599 105.396 86.4975 108.134C85.5675 110.324 86.11 112.957 86.4975 114C85.8517 112.827 84.0951 101.226 82.2352 102.165C80.3753 103.104 79.1354 105.424 78.7479 106.467C78.4896 104.251 76.5006 92.6729 70.6109 93.6116C64.7213 94.5503 60.6657 73.1321 59.3741 74.9573C59.2449 73.5232 58.2116 70.6551 55.1118 70.6551C52.012 70.6551 50.4621 72.741 50.0746 73.784C50.2038 72.3499 49.3772 68.7778 45.0374 65.9618C40.6977 63.1458 37.8045 65.8314 36.9004 67.5262V141.276H105.871H172.905V67.5262C172.001 65.8314 169.108 63.1458 164.768 65.9618C160.428 68.7778 159.602 72.3499 159.731 73.784C159.343 72.741 157.793 70.6551 154.693 70.6551C151.594 70.6551 150.56 73.5232 150.431 74.9573C149.14 73.1321 145.084 94.5503 139.194 93.6116C133.305 92.6729 131.316 104.251 131.057 106.467C130.67 105.424 129.43 103.104 127.57 102.165C125.71 101.226 123.954 112.827 123.308 114C123.695 112.957 124.238 110.324 123.308 108.134C122.145 105.396 116.721 111.45 113.233 109.885C109.791 108.341 108.992 105.273 107.109 98.0485L107.034 97.7608Z" fill="#0076FF"/>
<path d="M107.034 106.195C105.484 100.25 105.613 94.0707 105.871 91.724H103.934C104.192 94.0707 104.321 100.25 102.772 106.195L102.697 106.483C100.814 113.707 100.014 116.775 96.5719 118.32C93.0846 119.884 87.6599 114.885 86.4975 117.622C85.5675 119.813 86.11 122.446 86.4975 123.489C85.8517 122.316 84.0951 120.204 82.2352 121.142C80.3753 122.081 79.1354 124.402 78.7479 125.445C78.4896 123.228 76.5006 111.65 70.6109 112.589C64.7213 113.528 60.6657 105.815 59.3741 107.641C59.2449 106.206 58.2116 103.338 55.1118 103.338C52.012 103.338 50.4621 105.424 50.0746 106.467C50.2038 105.033 49.3772 101.461 45.0374 98.645C40.6977 95.829 37.8045 98.5146 36.9004 100.209V152.873H105.871H172.905V100.209C172.001 98.5146 169.108 95.829 164.768 98.645C160.428 101.461 159.602 105.033 159.731 106.467C159.343 105.424 157.793 103.338 154.693 103.338C151.594 103.338 150.56 106.206 150.431 107.641C149.14 105.815 145.084 113.528 139.194 112.589C133.305 111.65 131.316 123.228 131.057 125.445C130.67 124.402 129.43 122.081 127.57 121.142C125.71 120.204 123.954 122.316 123.308 123.489C123.695 122.446 124.238 119.813 123.308 117.622C122.145 114.885 116.721 119.884 113.233 118.32C109.791 116.775 108.992 113.707 107.109 106.483L107.034 106.195Z" fill="#89C0FF"/>
<path d="M107.034 118.847C105.484 112.902 105.613 106.722 105.871 104.376H103.934C104.192 106.722 104.321 112.902 102.772 118.847L102.697 119.134C100.814 126.359 100.014 129.427 96.5719 130.971C93.0846 132.536 87.6599 131.753 86.4975 134.491C85.5675 136.681 86.11 139.315 86.4975 140.358C85.8517 139.184 84.0951 137.072 82.2352 138.011C80.3753 138.95 79.1354 141.27 78.7479 142.313C78.4896 140.097 76.5006 135.899 70.6109 136.838C64.7213 137.776 60.6657 141.662 59.3741 143.487C59.2449 142.053 58.2116 139.184 55.1118 139.184C52.012 139.184 50.4621 141.27 50.0746 142.313C50.2038 140.879 49.3772 137.307 45.0374 134.491C40.6977 131.675 37.8045 134.361 36.9004 136.056V152.873H105.871H172.905V136.056C172.001 134.361 169.108 131.675 164.768 134.491C160.428 137.307 159.602 140.879 159.731 142.313C159.343 141.27 157.793 139.184 154.693 139.184C151.594 139.184 150.56 142.053 150.431 143.487C149.14 141.662 145.084 137.776 139.194 136.838C133.305 135.899 131.316 140.097 131.057 142.313C130.67 141.27 129.43 138.95 127.57 138.011C125.71 137.072 123.954 139.184 123.308 140.358C123.695 139.315 124.238 136.681 123.308 134.491C122.145 131.753 116.721 132.536 113.233 130.971C109.791 129.427 108.992 126.359 107.109 119.134L107.034 118.847Z" fill="#C5E0FF"/>
<path d="M132.615 63.056L117.142 55.9741C114.493 54.7615 111.478 56.6976 111.478 59.6112V69.3335C111.478 71.5427 113.268 73.3335 115.478 73.3335H130.951C133.16 73.3335 134.951 71.5427 134.951 69.3335V66.6931C134.951 65.1283 134.038 63.7072 132.615 63.056Z" fill="#B4B4B4" stroke="#2D2A2A" stroke-width="2"/>
<path d="M75.082 63.056L90.555 55.9741C93.2044 54.7615 96.2197 56.6976 96.2197 59.6112V69.3335C96.2197 71.5427 94.4289 73.3335 92.2197 73.3335H76.7467C74.5375 73.3335 72.7467 71.5427 72.7467 69.3335V66.6931C72.7467 65.1283 73.6591 63.7072 75.082 63.056Z" fill="#B4B4B4" stroke="#2D2A2A" stroke-width="2"/>
<path d="M100.207 75.5073H108.664C109.141 75.5073 109.551 75.8437 109.645 76.3111L111.192 84.0477C111.316 84.6665 110.842 85.2438 110.211 85.2438H98.6593C98.0283 85.2438 97.555 84.6665 97.6788 84.0477L99.2261 76.3111C99.3195 75.8437 99.73 75.5073 100.207 75.5073Z" fill="#F8F8F8" stroke="#2D2A2A" stroke-width="2"/>
<path d="M114.697 97.166C115.574 92.5672 114.332 87.9684 113.601 86.2438H104.587H104.285H95.2706C94.54 87.9684 93.2978 92.5672 94.1746 97.166C95.0514 101.765 95.636 103.681 95.8186 104.064L97.4626 101.765C97.6453 102.914 98.5587 106.019 100.751 109.238C102.705 112.108 103.934 113.669 104.436 114.245C104.938 113.669 106.166 112.108 108.121 109.238C110.313 106.019 111.227 102.914 111.409 101.765L113.053 104.064C113.236 103.681 113.82 101.765 114.697 97.166Z" fill="#E87061"/>
<path d="M111.276 94.4354C111.861 90.9863 111.033 87.5372 110.546 86.2438H104.536H104.335H98.3253C97.8382 87.5372 97.0101 90.9863 97.5946 94.4354C98.1791 97.8845 98.5688 99.3217 98.6906 99.6091L99.7866 97.8845C99.9084 98.7468 100.517 101.075 101.979 103.489C103.282 105.642 104.101 106.812 104.435 107.244C104.77 106.812 105.589 105.642 106.892 103.489C108.354 101.075 108.963 98.7468 109.084 97.8845L110.18 99.6091C110.302 99.3217 110.692 97.8845 111.276 94.4354Z" fill="#FEE76D"/>
<path d="M119.867 35.4042V70.0281C119.867 73.8941 116.733 77.0281 112.867 77.0281H96.0049C92.1389 77.0281 89.0049 73.8941 89.0049 70.0281V35.599C89.0049 35.0179 89.0744 34.4595 89.2268 33.9228C89.8544 31.7124 91.6151 26.0194 94.3936 20.8983C95.7837 18.3362 97.4015 15.9683 99.2198 14.2527C101.036 12.5387 102.978 11.5431 105.045 11.5431C107.135 11.5431 109.037 12.5621 110.775 14.3096C112.518 16.0618 114.023 18.4783 115.285 21.0837C117.809 26.2905 119.257 32.0261 119.723 34.0578C119.823 34.4931 119.867 34.9349 119.867 35.4042Z" fill="#F8F8F8" stroke="#2D2A2A" stroke-width="2"/>
<rect x="93.873" y="83.8963" width="21.1258" height="2.34731" rx="1.17365" fill="#2D2A2A"/>
<circle cx="104.436" cy="41.6449" r="10.5629" fill="#2D2A2A"/>
<path d="M104.801 11.6299C108.197 11.6299 111.034 14.3356 113.317 18.1004H95.9572C97.0998 16.3589 98.3625 14.8259 99.736 13.6894C101.304 12.392 102.992 11.6299 104.801 11.6299Z" fill="#2D2A2A" stroke="#2D2A2A"/>
<mask id="mask0" mask-type="alpha" maskUnits="userSpaceOnUse" x="99" y="36" width="12" height="12">
<path d="M99.6826 39.2615C99.6826 37.742 100.953 36.5102 102.521 36.5102H110.363C110.363 38.0297 109.092 39.2615 107.525 39.2615H102.827C101.7 39.2615 100.605 39.6265 99.7172 40.2984L99.6826 40.3246V39.2615Z" fill="#7D7C7C"/>
<path d="M99.6826 43.594C99.6826 41.7883 101.22 40.3246 103.116 40.3246V44.6838C103.116 46.4895 101.579 47.9533 99.6826 47.9533V43.594Z" fill="#2D2A2A"/>
<path d="M99.6826 43.0759C99.6826 41.5564 100.953 40.3246 102.521 40.3246H107.552C107.552 41.8441 106.282 43.0759 104.714 43.0759H102.3C101.514 43.0759 100.752 43.3303 100.133 43.7986L99.6826 44.1389V43.0759Z" fill="#7D7C7C"/>
</mask>
<g mask="url(#mask0)">
<rect x="99.6826" y="47.9533" width="11.4431" height="10.6802" transform="rotate(-90 99.6826 47.9533)" fill="#0076FF"/>
<rect x="99.6826" y="47.9533" width="11.4431" height="10.6802" transform="rotate(-90 99.6826 47.9533)" fill="url(#paint0_radial)"/>
<rect x="99.6826" y="47.9533" width="11.4431" height="10.6802" transform="rotate(-90 99.6826 47.9533)" fill="url(#paint1_linear)" fill-opacity="0.4"/>
<g style="mix-blend-mode:soft-light">
<path d="M99.6826 39.2615C99.6826 37.742 100.953 36.5102 102.521 36.5102H110.363C110.363 38.0297 109.092 39.2615 107.525 39.2615H102.827C101.7 39.2615 100.605 39.6265 99.7172 40.2984L99.6826 40.3246V39.2615Z" fill="#F8F8F8"/>
<path d="M99.6826 43.594C99.6826 41.7883 101.22 40.3246 103.116 40.3246V44.6838C103.116 46.4895 101.579 47.9533 99.6826 47.9533V43.594Z" fill="#7D7C7C"/>
<path d="M99.6826 43.0759C99.6826 41.5564 100.953 40.3246 102.521 40.3246H107.552C107.552 41.8441 106.282 43.0759 104.714 43.0759H102.3C101.514 43.0759 100.752 43.3303 100.133 43.7986L99.6826 44.1389V43.0759Z" fill="#F8F8F8"/>
</g>
</g>
<line x1="44.1719" y1="164.579" x2="163.525" y2="164.579" stroke="#2D2A2A" stroke-width="4" stroke-linecap="round"/>
<line x1="38.9004" y1="170.905" x2="170.905" y2="170.905" stroke="#2D2A2A" stroke-width="4" stroke-linecap="round"/>
<line x1="34.6836" y1="177.231" x2="175.123" y2="177.231" stroke="#2D2A2A" stroke-width="4" stroke-linecap="round"/>
<circle cx="210.859" cy="15.8145" r="15.8145" fill="#0076FF"/>
<path d="M208.224 19.4782L204.56 15.8145L203.312 17.0533L208.224 21.9646L218.767 11.4216L217.528 10.1828L208.224 19.4782Z" fill="#FCFCFC"/>
<defs>
<radialGradient id="paint0_radial" cx="0" cy="0" r="1" gradientUnits="userSpaceOnUse" gradientTransform="translate(111.126 58.029) rotate(-163.336) scale(16.3969 11.1874)">
<stop offset="0.177083" stop-color="#FA5A45"/>
<stop offset="1" stop-color="#F45151" stop-opacity="0"/>
</radialGradient>
<linearGradient id="paint1_linear" x1="100.619" y1="57.3573" x2="106.396" y2="46.7265" gradientUnits="userSpaceOnUse">
<stop stop-color="#0076FF"/>
<stop offset="1" stop-color="#0076FF" stop-opacity="0"/>
</linearGradient>
</defs>
</svg>
