<svg width="40" height="40" viewBox="0 0 40 40" fill="none" xmlns="http://www.w3.org/2000/svg">
<path d="M18.333 11.6667H21.6663V15H18.333V11.6667ZM18.333 18.3333H21.6663V28.3333H18.333V18.3333ZM19.9997 3.33333C10.7997 3.33333 3.33301 10.8 3.33301 20C3.33301 29.2 10.7997 36.6667 19.9997 36.6667C29.1997 36.6667 36.6663 29.2 36.6663 20C36.6663 10.8 29.1997 3.33333 19.9997 3.33333ZM19.9997 33.3333C12.6497 33.3333 6.66634 27.35 6.66634 20C6.66634 12.65 12.6497 6.66667 19.9997 6.66667C27.3497 6.66667 33.333 12.65 33.333 20C33.333 27.35 27.3497 33.3333 19.9997 33.3333Z" fill="#2D2A2A"/>
</svg>
