<svg width="40" height="40" viewBox="0 0 40 40" fill="none" xmlns="http://www.w3.org/2000/svg">
<path d="M32.3831 21.6333C32.4497 21.1 32.4997 20.5667 32.4997 20C32.4997 19.4333 32.4497 18.9 32.3831 18.3667L35.8997 15.6167C36.2164 15.3667 36.2997 14.9167 36.0997 14.55L32.7664 8.78333C32.6164 8.51667 32.3331 8.36667 32.0331 8.36667C31.9331 8.36667 31.8331 8.38333 31.7497 8.41667L27.5997 10.0833C26.7331 9.41667 25.7997 8.86667 24.7831 8.45L24.1497 4.03333C24.0997 3.63333 23.7497 3.33333 23.3331 3.33333H16.6664C16.2497 3.33333 15.8997 3.63333 15.8497 4.03333L15.2164 8.45C14.1997 8.86667 13.2664 9.43333 12.3997 10.0833L8.24973 8.41667C8.14973 8.38333 8.04973 8.36667 7.94973 8.36667C7.6664 8.36667 7.38307 8.51667 7.23307 8.78333L3.89973 14.55C3.68307 14.9167 3.78307 15.3667 4.09973 15.6167L7.6164 18.3667C7.54973 18.9 7.49973 19.45 7.49973 20C7.49973 20.55 7.54973 21.1 7.6164 21.6333L4.09973 24.3833C3.78307 24.6333 3.69973 25.0833 3.89973 25.45L7.23307 31.2167C7.38307 31.4833 7.6664 31.6333 7.9664 31.6333C8.0664 31.6333 8.1664 31.6167 8.24973 31.5833L12.3997 29.9167C13.2664 30.5833 14.1997 31.1333 15.2164 31.55L15.8497 35.9667C15.8997 36.3667 16.2497 36.6667 16.6664 36.6667H23.3331C23.7497 36.6667 24.0997 36.3667 24.1497 35.9667L24.7831 31.55C25.7997 31.1333 26.7331 30.5667 27.5997 29.9167L31.7497 31.5833C31.8497 31.6167 31.9497 31.6333 32.0497 31.6333C32.3331 31.6333 32.6164 31.4833 32.7664 31.2167L36.0997 25.45C36.2997 25.0833 36.2164 24.6333 35.8997 24.3833L32.3831 21.6333V21.6333ZM29.0831 18.7833C29.1497 19.3 29.1664 19.65 29.1664 20C29.1664 20.35 29.1331 20.7167 29.0831 21.2167L28.8497 23.1L30.3331 24.2667L32.1331 25.6667L30.9664 27.6833L28.8497 26.8333L27.1164 26.1333L25.6164 27.2667C24.8997 27.8 24.2164 28.2 23.5331 28.4833L21.7664 29.2L21.4997 31.0833L21.1664 33.3333H18.8331L18.5164 31.0833L18.2497 29.2L16.4831 28.4833C15.7664 28.1833 15.0997 27.8 14.4331 27.3L12.9164 26.1333L11.1497 26.85L9.03307 27.7L7.8664 25.6833L9.6664 24.2833L11.1497 23.1167L10.9164 21.2333C10.8664 20.7167 10.8331 20.3333 10.8331 20C10.8331 19.6667 10.8664 19.2833 10.9164 18.7833L11.1497 16.9L9.6664 15.7333L7.8664 14.3333L9.03307 12.3167L11.1497 13.1667L12.8831 13.8667L14.3831 12.7333C15.0997 12.2 15.7831 11.8 16.4664 11.5167L18.2331 10.8L18.4997 8.91667L18.8331 6.66667H21.1497L21.4664 8.91667L21.7331 10.8L23.4997 11.5167C24.2164 11.8167 24.8831 12.2 25.5497 12.7L27.0664 13.8667L28.8331 13.15L30.9497 12.3L32.1164 14.3167L30.3331 15.7333L28.8497 16.9L29.0831 18.7833ZM19.9997 13.3333C16.3164 13.3333 13.3331 16.3167 13.3331 20C13.3331 23.6833 16.3164 26.6667 19.9997 26.6667C23.6831 26.6667 26.6664 23.6833 26.6664 20C26.6664 16.3167 23.6831 13.3333 19.9997 13.3333ZM19.9997 23.3333C18.1664 23.3333 16.6664 21.8333 16.6664 20C16.6664 18.1667 18.1664 16.6667 19.9997 16.6667C21.8331 16.6667 23.3331 18.1667 23.3331 20C23.3331 21.8333 21.8331 23.3333 19.9997 23.3333Z" fill="#2D2A2A"/>
</svg>
